<?xml version="1.0" encoding="utf-8"?>
<!-- Generator: Adobe Illustrator 23.0.5, SVG Export Plug-In . SVG Version: 6.00 Build 0)  -->
<svg version="1.1" id="Слой_1" xmlns="http://www.w3.org/2000/svg" xmlns:xlink="http://www.w3.org/1999/xlink" x="0px" y="0px"
	 viewBox="0 0 146.16 146.16" style="enable-background:new 0 0 146.16 146.16;" xml:space="preserve">
<style type="text/css">
	.st0{fill:#FFFFFF;stroke:#000000;stroke-width:4;stroke-miterlimit:10;}
	.st1{fill:#C1272D;}
</style>
<g>
	<circle class="st0" cx="73.08" cy="73.08" r="71.08"/>
	<g>
		<polygon class="st1" points="42.89,84.54 79.36,84.54 54.7,104.4 36.32,112.28 32.56,110.03 41.57,90.52 		"/>
		<path d="M99.32,69.51L76.08,46.28c-3.18-3.18-3.18-8.33,0-11.51l0.16-0.16c3.18-3.18,8.33-3.18,11.51,0l23.24,23.24
			c3.18,3.18,3.18,8.33,0,11.51l-0.16,0.16C107.65,72.69,102.5,72.69,99.32,69.51z"/>
		<path d="M108.52,55.38l-18.3-18.3l8.48-8.48c4.98-4.98,13.06-4.98,18.04,0l0.26,0.26c4.98,4.98,4.98,13.06,0,18.04L108.52,55.38z"
			/>
		<path d="M93,63.2L59.57,96.64c-6.06,6.06-13.7,10.17-22.1,11.89l-0.38,0.08l0.11-0.52c1.79-8.17,5.86-15.62,11.77-21.54
			l33.69-33.69l-4.11-4.11l-33.3,33.3l-0.25,0.25c-6.67,6.67-11.28,15.11-13.29,24.32l-0.92,4.22l-5.02,5.02
			c-1.03,1.03-1.03,2.69,0,3.71c1.03,1.03,2.69,1.03,3.71,0l4.93-4.93l4.18-0.85c9.45-1.93,18.13-6.6,24.95-13.43l0,0l33.3-33.3
			L93,63.2z"/>
	</g>
</g>
</svg>
