<?xml version="1.0" encoding="utf-8"?>
<!-- Generator: Adobe Illustrator 23.0.5, SVG Export Plug-In . SVG Version: 6.00 Build 0)  -->
<svg version="1.1" id="Слой_1" xmlns="http://www.w3.org/2000/svg" xmlns:xlink="http://www.w3.org/1999/xlink" x="0px" y="0px"
	 viewBox="0 0 146.2 146.2" style="enable-background:new 0 0 146.2 146.2;" xml:space="preserve">
<style type="text/css">
	.st0{fill:#FFFFFF;stroke:#C8C8C8;stroke-width:4;stroke-miterlimit:10;}
	.st1{fill:#C1272D;}
</style>
<g>
	<circle class="st0" cx="73.1" cy="73.1" r="71.1"/>
	<g>
		<polygon class="st1" points="42.9,84.5 79.4,84.5 54.7,104.4 36.3,112.3 32.6,110 41.6,90.5 		"/>
		<path d="M99.3,69.5L76.1,46.3c-3.2-3.2-3.2-8.3,0-11.5l0.2-0.2c3.2-3.2,8.3-3.2,11.5,0L111,57.8c3.2,3.2,3.2,8.3,0,11.5l-0.2,0.2
			C107.7,72.7,102.5,72.7,99.3,69.5z"/>
		<path d="M108.5,55.4L90.2,37.1l8.5-8.5c5-5,13.1-5,18,0l0.3,0.3c5,5,5,13.1,0,18L108.5,55.4z"/>
		<path d="M93,63.2L59.6,96.6c-6.1,6.1-13.7,10.2-22.1,11.9l-0.4,0.1l0.1-0.5C39,99.9,43.1,92.5,49,86.6l33.7-33.7l-4.1-4.1
			L45.3,82.1L45,82.3c-6.7,6.7-11.3,15.1-13.3,24.3l-0.9,4.2l-5,5c-1,1-1,2.7,0,3.7c1,1,2.7,1,3.7,0l4.9-4.9l4.2-0.8
			c9.5-1.9,18.1-6.6,25-13.4l0,0l33.3-33.3L93,63.2z"/>
	</g>
</g>
</svg>
